<?xml version="1.0" encoding="utf-8"?>
<!-- Generator: Adobe Illustrator 21.0.0, SVG Export Plug-In . SVG Version: 6.00 Build 0)  -->
<svg id="Ebene_1" style="enable-background:new 0 0 60 12;" version="1.1" viewBox="0 0 60 12" x="0px"
     xml:space="preserve" xmlns="http://www.w3.org/2000/svg" y="0px">
<style type="text/css">
	.st0 {
    fill: #FFFFFF;
  }
</style>
  <g>
	<path class="st0" d="M11.2,3.3v2.3h2.7V3.3h0.7v5.5h-0.7V6.2h-2.7v2.6h-0.7V3.3H11.2z"/>
    <path class="st0" d="M19.2,8.8c-0.2-0.2-0.3-0.3-0.5-0.5c-0.5,0.4-1,0.6-1.6,0.6c-1.1,0-1.7-0.7-1.7-1.5c0-0.7,0.4-1.3,1.1-1.6v0
		C16.2,5.4,16,5,16,4.6c0-0.7,0.5-1.4,1.4-1.4c0.7,0,1.2,0.5,1.2,1.2c0,0.6-0.3,1-1.2,1.5v0c0.5,0.5,1,1.1,1.3,1.5
		C19,7,19.2,6.5,19.3,5.8H20c-0.1,0.9-0.4,1.5-0.8,2c0.3,0.3,0.6,0.6,0.9,1H19.2z M18.4,7.8c-0.3-0.4-0.9-1-1.5-1.7
		c-0.3,0.2-0.7,0.5-0.7,1.1c0,0.6,0.5,1.1,1.1,1.1C17.7,8.3,18.1,8.1,18.4,7.8z M16.7,4.5c0,0.4,0.2,0.7,0.4,1
		C17.7,5.2,18,4.9,18,4.4c0-0.3-0.2-0.7-0.6-0.7C16.9,3.7,16.7,4.1,16.7,4.5z"/>
    <path class="st0" d="M24.9,8.5c-0.3,0.1-0.9,0.3-1.7,0.3c-0.8,0-1.5-0.2-2.1-0.7c-0.5-0.5-0.8-1.2-0.8-2c0-1.6,1.1-2.8,3-2.8
		c0.6,0,1.1,0.1,1.4,0.3l-0.2,0.6c-0.3-0.1-0.7-0.2-1.2-0.2c-1.3,0-2.2,0.8-2.2,2.2c0,1.4,0.8,2.2,2.1,2.2c0.5,0,0.8-0.1,0.9-0.1
		V6.5h-1.1V5.9h1.8V8.5z"/>
    <path class="st0" d="M27.6,6.3v0.5h-2V6.3H27.6z"/>
    <path class="st0" d="M31.3,6.2h-2.1v2h2.4v0.6h-3.1V3.3h3v0.6h-2.3v1.7h2.1V6.2z"/>
    <path class="st0"
          d="M32.7,4.8l0.8,2.2c0.1,0.4,0.2,0.7,0.3,1h0c0.1-0.3,0.2-0.7,0.3-1l0.8-2.2h0.7l-1.5,3.9h-0.7l-1.5-3.9H32.7z"
    />
    <path class="st0" d="M36.6,7c0,1,0.6,1.4,1.4,1.4c0.5,0,0.8-0.1,1.1-0.2l0.1,0.5c-0.3,0.1-0.7,0.2-1.3,0.2c-1.2,0-1.9-0.8-1.9-2
		s0.7-2.1,1.8-2.1c1.3,0,1.6,1.1,1.6,1.9c0,0.1,0,0.3,0,0.3H36.6z M38.7,6.4c0-0.5-0.2-1.2-1-1.2c-0.7,0-1,0.7-1.1,1.2H38.7z"/>
    <path class="st0" d="M40.3,5.9c0-0.4,0-0.7,0-1.1h0.6l0,0.7h0c0.2-0.4,0.7-0.7,1.3-0.7c0.5,0,1.4,0.3,1.4,1.7v2.4H43V6.5
		c0-0.6-0.2-1.2-0.9-1.2c-0.5,0-0.8,0.3-1,0.7c0,0.1,0,0.2,0,0.3v2.4h-0.7V5.9z"/>
    <path class="st0" d="M45.7,3.7v1.1h1v0.5h-1v2.1c0,0.5,0.1,0.8,0.5,0.8c0.2,0,0.3,0,0.4,0l0,0.5c-0.1,0.1-0.4,0.1-0.6,0.1
		c-0.3,0-0.6-0.1-0.8-0.3C45.1,8.4,45,8,45,7.5V5.4h-0.6V4.8H45V3.9L45.7,3.7z"/>
    <path class="st0" d="M47.4,8.1c0.2,0.1,0.6,0.3,0.9,0.3c0.5,0,0.8-0.3,0.8-0.6c0-0.3-0.2-0.5-0.7-0.7c-0.7-0.3-1-0.6-1-1.1
		c0-0.6,0.5-1.2,1.4-1.2c0.4,0,0.8,0.1,1,0.2l-0.2,0.5c-0.2-0.1-0.4-0.2-0.8-0.2c-0.4,0-0.7,0.2-0.7,0.5c0,0.3,0.2,0.5,0.8,0.7
		c0.7,0.3,1,0.6,1,1.2c0,0.7-0.5,1.2-1.5,1.2c-0.4,0-0.8-0.1-1.1-0.3L47.4,8.1z"/>
</g>
  <path class="st0"
        d="M4.5,10L4.5,10C4.2,10,4,9.8,4,9.5v-9C4,0.2,4.2,0,4.5,0h0C4.8,0,5,0.2,5,0.5v9C5,9.8,4.8,10,4.5,10z"/>
  <path class="st0" d="M6,9.5L6,9.5c-0.2,0-0.4-0.2-0.4-0.4V1.9c0-0.2,0.2-0.4,0.4-0.4h0c0.2,0,0.4,0.2,0.4,0.4v7.2
	C6.4,9.3,6.2,9.5,6,9.5z"/>
  <path class="st0" d="M3,9.5L3,9.5c-0.2,0-0.4-0.2-0.4-0.4V1.9c0-0.2,0.2-0.4,0.4-0.4h0c0.2,0,0.4,0.2,0.4,0.4v7.2
	C3.4,9.3,3.2,9.5,3,9.5z"/>
  <path class="st0" d="M7.5,9L7.5,9C7.3,9,7.2,8.9,7.2,8.7V3.3C7.2,3.1,7.3,3,7.5,3h0c0.2,0,0.3,0.1,0.3,0.3v5.4C7.8,8.9,7.7,9,7.5,9z
	"/>
  <path class="st0" d="M1.5,9L1.5,9C1.3,9,1.2,8.9,1.2,8.7V3.3C1.2,3.1,1.3,3,1.5,3h0c0.2,0,0.3,0.1,0.3,0.3v5.4C1.8,8.9,1.7,9,1.5,9z
	"/>
  <path class="st0" d="M55.5,10L55.5,10C55.2,10,55,9.8,55,9.5v-9C55,0.2,55.2,0,55.5,0l0,0C55.8,0,56,0.2,56,0.5v9
	C56,9.8,55.8,10,55.5,10z"/>
  <path class="st0" d="M57,9.5L57,9.5c-0.2,0-0.4-0.2-0.4-0.4V1.9c0-0.2,0.2-0.4,0.4-0.4l0,0c0.2,0,0.4,0.2,0.4,0.4v7.2
	C57.4,9.3,57.2,9.5,57,9.5z"/>
  <path class="st0" d="M54,9.5L54,9.5c-0.2,0-0.4-0.2-0.4-0.4V1.9c0-0.2,0.2-0.4,0.4-0.4l0,0c0.2,0,0.4,0.2,0.4,0.4v7.2
	C54.4,9.3,54.2,9.5,54,9.5z"/>
  <path class="st0" d="M58.5,9L58.5,9c-0.2,0-0.3-0.1-0.3-0.3V3.3c0-0.2,0.1-0.3,0.3-0.3l0,0c0.2,0,0.3,0.1,0.3,0.3v5.4
	C58.8,8.9,58.7,9,58.5,9z"/>
  <path class="st0" d="M52.5,9L52.5,9c-0.2,0-0.3-0.1-0.3-0.3V3.3c0-0.2,0.1-0.3,0.3-0.3l0,0c0.2,0,0.3,0.1,0.3,0.3v5.4
	C52.8,8.9,52.7,9,52.5,9z"/>
  <g>
</g>
  <g>
</g>
  <g>
</g>
  <g>
</g>
  <g>
</g>
  <g>
</g>
  <g>
</g>
  <g>
</g>
  <g>
</g>
  <g>
</g>
  <g>
</g>
</svg>
